<svg width="156" height="35" viewBox="0 0 156 35" fill="none" xmlns="http://www.w3.org/2000/svg">
<g filter="url(#filter0_d)">
<path d="M4 23C4 25.7614 6.23858 28 9 28H147C149.761 28 152 25.7614 152 23V6C152 3.23858 149.761 1 147 1H53H42.25H31.5H9C6.23858 1 4 3.23858 4 6V23Z" fill="white"/>
<path d="M5 23C5 25.2091 6.79086 27 9 27H147C149.209 27 151 25.2091 151 23V6C151 3.79086 149.209 2 147 2H53H42.25H31.5H9C6.79086 2 5 3.79086 5 6V23Z" stroke="#F0F2F4" stroke-width="2"/>
<path d="M5 23C5 25.2091 6.79086 27 9 27H147C149.209 27 151 25.2091 151 23V6C151 3.79086 149.209 2 147 2H53H42.25H31.5H9C6.79086 2 5 3.79086 5 6V23Z" stroke="#F6F6F6" stroke-width="2"/>
</g>
<path d="M19 14V13H18V14H19ZM19 19H18V20H19V19ZM19 15H22V13H19V15ZM23 16V17H25V16H23ZM22 18H19V20H22V18ZM20 19V14H18V19H20ZM23 17C23 17.5523 22.5523 18 22 18V20C23.6569 20 25 18.6569 25 17H23ZM22 15C22.5523 15 23 15.4477 23 16H25C25 14.3431 23.6569 13 22 13V15Z" fill="black"/>
<path d="M27 14H30C31.1046 14 32 14.8954 32 16V17C32 18.1046 31.1046 19 30 19H27V14Z" stroke="black" stroke-width="2"/>
<path d="M24 9H19V15" stroke="black" stroke-width="2"/>
<path d="M32 9H27V15" stroke="black" stroke-width="2"/>
<path d="M45.456 14.532H43.368V16.572H41.82V14.532H39.744V13.068H41.82V11.028H43.368V13.068H45.456V14.532ZM56.326 16.416V18H49.978V16.74L53.218 13.68C53.562 13.352 53.794 13.072 53.914 12.84C54.034 12.6 54.094 12.364 54.094 12.132C54.094 11.796 53.978 11.54 53.746 11.364C53.522 11.18 53.19 11.088 52.75 11.088C52.382 11.088 52.05 11.16 51.754 11.304C51.458 11.44 51.21 11.648 51.01 11.928L49.594 11.016C49.922 10.528 50.374 10.148 50.95 9.876C51.526 9.596 52.186 9.456 52.93 9.456C53.554 9.456 54.098 9.56 54.562 9.768C55.034 9.968 55.398 10.256 55.654 10.632C55.918 11 56.05 11.436 56.05 11.94C56.05 12.396 55.954 12.824 55.762 13.224C55.57 13.624 55.198 14.08 54.646 14.592L52.714 16.416H56.326ZM64.1266 18.144C63.4306 18.144 62.8106 17.972 62.2666 17.628C61.7226 17.284 61.2946 16.788 60.9826 16.14C60.6786 15.484 60.5266 14.704 60.5266 13.8C60.5266 12.896 60.6786 12.12 60.9826 11.472C61.2946 10.816 61.7226 10.316 62.2666 9.972C62.8106 9.628 63.4306 9.456 64.1266 9.456C64.8226 9.456 65.4426 9.628 65.9866 9.972C66.5306 10.316 66.9546 10.816 67.2586 11.472C67.5706 12.12 67.7266 12.896 67.7266 13.8C67.7266 14.704 67.5706 15.484 67.2586 16.14C66.9546 16.788 66.5306 17.284 65.9866 17.628C65.4426 17.972 64.8226 18.144 64.1266 18.144ZM64.1266 16.5C64.6386 16.5 65.0386 16.28 65.3266 15.84C65.6226 15.4 65.7706 14.72 65.7706 13.8C65.7706 12.88 65.6226 12.2 65.3266 11.76C65.0386 11.32 64.6386 11.1 64.1266 11.1C63.6226 11.1 63.2226 11.32 62.9266 11.76C62.6386 12.2 62.4946 12.88 62.4946 13.8C62.4946 14.72 62.6386 15.4 62.9266 15.84C63.2226 16.28 63.6226 16.5 64.1266 16.5ZM72.2711 18.144C71.5751 18.144 70.9551 17.972 70.4111 17.628C69.8671 17.284 69.4391 16.788 69.1271 16.14C68.8231 15.484 68.6711 14.704 68.6711 13.8C68.6711 12.896 68.8231 12.12 69.1271 11.472C69.4391 10.816 69.8671 10.316 70.4111 9.972C70.9551 9.628 71.5751 9.456 72.2711 9.456C72.9671 9.456 73.5871 9.628 74.1311 9.972C74.6751 10.316 75.0991 10.816 75.4031 11.472C75.7151 12.12 75.8711 12.896 75.8711 13.8C75.8711 14.704 75.7151 15.484 75.4031 16.14C75.0991 16.788 74.6751 17.284 74.1311 17.628C73.5871 17.972 72.9671 18.144 72.2711 18.144ZM72.2711 16.5C72.7831 16.5 73.1831 16.28 73.4711 15.84C73.7671 15.4 73.9151 14.72 73.9151 13.8C73.9151 12.88 73.7671 12.2 73.4711 11.76C73.1831 11.32 72.7831 11.1 72.2711 11.1C71.7671 11.1 71.3671 11.32 71.0711 11.76C70.7831 12.2 70.6391 12.88 70.6391 13.8C70.6391 14.72 70.7831 15.4 71.0711 15.84C71.3671 16.28 71.7671 16.5 72.2711 16.5ZM80.4157 18.144C79.7197 18.144 79.0997 17.972 78.5557 17.628C78.0117 17.284 77.5837 16.788 77.2717 16.14C76.9677 15.484 76.8157 14.704 76.8157 13.8C76.8157 12.896 76.9677 12.12 77.2717 11.472C77.5837 10.816 78.0117 10.316 78.5557 9.972C79.0997 9.628 79.7197 9.456 80.4157 9.456C81.1117 9.456 81.7317 9.628 82.2757 9.972C82.8197 10.316 83.2437 10.816 83.5477 11.472C83.8597 12.12 84.0157 12.896 84.0157 13.8C84.0157 14.704 83.8597 15.484 83.5477 16.14C83.2437 16.788 82.8197 17.284 82.2757 17.628C81.7317 17.972 81.1117 18.144 80.4157 18.144ZM80.4157 16.5C80.9277 16.5 81.3277 16.28 81.6157 15.84C81.9117 15.4 82.0597 14.72 82.0597 13.8C82.0597 12.88 81.9117 12.2 81.6157 11.76C81.3277 11.32 80.9277 11.1 80.4157 11.1C79.9117 11.1 79.5117 11.32 79.2157 11.76C78.9277 12.2 78.7837 12.88 78.7837 13.8C78.7837 14.72 78.9277 15.4 79.2157 15.84C79.5117 16.28 79.9117 16.5 80.4157 16.5ZM92.5226 11.988C93.1386 11.988 93.6786 12.116 94.1426 12.372C94.6066 12.62 94.9626 12.972 95.2106 13.428C95.4666 13.884 95.5946 14.412 95.5946 15.012C95.5946 15.628 95.4426 16.176 95.1386 16.656C94.8426 17.128 94.4266 17.496 93.8906 17.76C93.3546 18.016 92.7466 18.144 92.0666 18.144C90.9386 18.144 90.0506 17.784 89.4026 17.064C88.7626 16.336 88.4426 15.272 88.4426 13.872C88.4426 12.576 88.7226 11.544 89.2826 10.776C89.8506 10 90.7186 9.492 91.8866 9.252L94.9586 8.64L95.2106 10.248L92.4986 10.788C91.7626 10.932 91.2146 11.172 90.8546 11.508C90.5026 11.844 90.2946 12.32 90.2306 12.936C90.5106 12.632 90.8466 12.4 91.2386 12.24C91.6306 12.072 92.0586 11.988 92.5226 11.988ZM92.0786 16.692C92.5586 16.692 92.9426 16.536 93.2306 16.224C93.5266 15.912 93.6746 15.516 93.6746 15.036C93.6746 14.548 93.5266 14.16 93.2306 13.872C92.9426 13.584 92.5586 13.44 92.0786 13.44C91.5906 13.44 91.1986 13.584 90.9026 13.872C90.6066 14.16 90.4586 14.548 90.4586 15.036C90.4586 15.524 90.6106 15.924 90.9146 16.236C91.2186 16.54 91.6066 16.692 92.0786 16.692ZM99.8888 18.096C99.2088 18.096 98.5968 17.956 98.0528 17.676C97.5168 17.388 97.0968 16.992 96.7928 16.488C96.4888 15.984 96.3368 15.412 96.3368 14.772C96.3368 14.132 96.4888 13.56 96.7928 13.056C97.0968 12.552 97.5168 12.16 98.0528 11.88C98.5968 11.592 99.2088 11.448 99.8888 11.448C100.569 11.448 101.177 11.592 101.713 11.88C102.249 12.16 102.669 12.552 102.973 13.056C103.277 13.56 103.429 14.132 103.429 14.772C103.429 15.412 103.277 15.984 102.973 16.488C102.669 16.992 102.249 17.388 101.713 17.676C101.177 17.956 100.569 18.096 99.8888 18.096ZM99.8888 16.56C100.369 16.56 100.761 16.4 101.065 16.08C101.377 15.752 101.533 15.316 101.533 14.772C101.533 14.228 101.377 13.796 101.065 13.476C100.761 13.148 100.369 12.984 99.8888 12.984C99.4088 12.984 99.0128 13.148 98.7008 13.476C98.3888 13.796 98.2328 14.228 98.2328 14.772C98.2328 15.316 98.3888 15.752 98.7008 16.08C99.0128 16.4 99.4088 16.56 99.8888 16.56ZM104.716 11.544H106.576V14.064H109.384V11.544H111.256V18H109.384V15.588H106.576V18H104.716V11.544ZM119.516 11.544L116.6 18.396C116.304 19.14 115.936 19.664 115.496 19.968C115.064 20.272 114.54 20.424 113.924 20.424C113.588 20.424 113.256 20.372 112.928 20.268C112.6 20.164 112.332 20.02 112.124 19.836L112.808 18.504C112.952 18.632 113.116 18.732 113.3 18.804C113.492 18.876 113.68 18.912 113.864 18.912C114.12 18.912 114.328 18.848 114.488 18.72C114.648 18.6 114.792 18.396 114.92 18.108L114.944 18.048L112.148 11.544H114.08L115.892 15.924L117.716 11.544H119.516ZM123.316 18.096C122.628 18.096 122.008 17.956 121.456 17.676C120.912 17.388 120.484 16.992 120.172 16.488C119.868 15.984 119.716 15.412 119.716 14.772C119.716 14.132 119.868 13.56 120.172 13.056C120.484 12.552 120.912 12.16 121.456 11.88C122.008 11.592 122.628 11.448 123.316 11.448C123.996 11.448 124.588 11.592 125.092 11.88C125.604 12.16 125.976 12.564 126.208 13.092L124.756 13.872C124.42 13.28 123.936 12.984 123.304 12.984C122.816 12.984 122.412 13.144 122.092 13.464C121.772 13.784 121.612 14.22 121.612 14.772C121.612 15.324 121.772 15.76 122.092 16.08C122.412 16.4 122.816 16.56 123.304 16.56C123.944 16.56 124.428 16.264 124.756 15.672L126.208 16.464C125.976 16.976 125.604 17.376 125.092 17.664C124.588 17.952 123.996 18.096 123.316 18.096ZM130.287 18.096C129.607 18.096 128.995 17.956 128.451 17.676C127.915 17.388 127.495 16.992 127.191 16.488C126.887 15.984 126.735 15.412 126.735 14.772C126.735 14.132 126.887 13.56 127.191 13.056C127.495 12.552 127.915 12.16 128.451 11.88C128.995 11.592 129.607 11.448 130.287 11.448C130.967 11.448 131.575 11.592 132.111 11.88C132.647 12.16 133.067 12.552 133.371 13.056C133.675 13.56 133.827 14.132 133.827 14.772C133.827 15.412 133.675 15.984 133.371 16.488C133.067 16.992 132.647 17.388 132.111 17.676C131.575 17.956 130.967 18.096 130.287 18.096ZM130.287 16.56C130.767 16.56 131.159 16.4 131.463 16.08C131.775 15.752 131.931 15.316 131.931 14.772C131.931 14.228 131.775 13.796 131.463 13.476C131.159 13.148 130.767 12.984 130.287 12.984C129.807 12.984 129.411 13.148 129.099 13.476C128.787 13.796 128.631 14.228 128.631 14.772C128.631 15.316 128.787 15.752 129.099 16.08C129.411 16.4 129.807 16.56 130.287 16.56ZM140.047 14.628C140.807 14.884 141.187 15.396 141.187 16.164C141.187 16.748 140.967 17.2 140.527 17.52C140.087 17.84 139.431 18 138.559 18H135.115V11.544H138.415C139.223 11.544 139.855 11.692 140.311 11.988C140.767 12.276 140.995 12.684 140.995 13.212C140.995 13.532 140.911 13.816 140.743 14.064C140.583 14.304 140.351 14.492 140.047 14.628ZM136.831 14.196H138.247C138.903 14.196 139.231 13.964 139.231 13.5C139.231 13.044 138.903 12.816 138.247 12.816H136.831V14.196ZM138.403 16.728C139.091 16.728 139.435 16.492 139.435 16.02C139.435 15.772 139.355 15.592 139.195 15.48C139.035 15.36 138.783 15.3 138.439 15.3H136.831V16.728H138.403Z" fill="black"/>
<defs>
<filter id="filter0_d" x="0" y="0" width="156" height="35" filterUnits="userSpaceOnUse" color-interpolation-filters="sRGB">
<feFlood flood-opacity="0" result="BackgroundImageFix"/>
<feColorMatrix in="SourceAlpha" type="matrix" values="0 0 0 0 0 0 0 0 0 0 0 0 0 0 0 0 0 0 127 0" result="hardAlpha"/>
<feOffset dy="3"/>
<feGaussianBlur stdDeviation="2"/>
<feColorMatrix type="matrix" values="0 0 0 0 0 0 0 0 0 0 0 0 0 0 0 0 0 0 0.02 0"/>
<feBlend mode="normal" in2="BackgroundImageFix" result="effect1_dropShadow"/>
<feBlend mode="normal" in="SourceGraphic" in2="effect1_dropShadow" result="shape"/>
</filter>
</defs>
</svg>
