<svg width="156" height="35" viewBox="0 0 156 35" fill="none" xmlns="http://www.w3.org/2000/svg">
<g filter="url(#filter0_d)">
<path d="M4 23C4 25.7614 6.23858 28 9 28H147C149.761 28 152 25.7614 152 23V6C152 3.23858 149.761 1 147 1H53H42.25H31.5H9C6.23858 1 4 3.23858 4 6V23Z" fill="white"/>
<path d="M5 23C5 25.2091 6.79086 27 9 27H147C149.209 27 151 25.2091 151 23V6C151 3.79086 149.209 2 147 2H53H42.25H31.5H9C6.79086 2 5 3.79086 5 6V23Z" stroke="#F0F2F4" stroke-width="2"/>
<path d="M5 23C5 25.2091 6.79086 27 9 27H147C149.209 27 151 25.2091 151 23V6C151 3.79086 149.209 2 147 2H53H42.25H31.5H9C6.79086 2 5 3.79086 5 6V23Z" stroke="#F6F6F6" stroke-width="2"/>
</g>
<defs>
<filter id="filter0_d" x="0" y="0" width="156" height="35" filterUnits="userSpaceOnUse" color-interpolation-filters="sRGB">
<feFlood flood-opacity="0" result="BackgroundImageFix"/>
<feColorMatrix in="SourceAlpha" type="matrix" values="0 0 0 0 0 0 0 0 0 0 0 0 0 0 0 0 0 0 127 0" result="hardAlpha"/>
<feOffset dy="3"/>
<feGaussianBlur stdDeviation="2"/>
<feColorMatrix type="matrix" values="0 0 0 0 0 0 0 0 0 0 0 0 0 0 0 0 0 0 0.02 0"/>
<feBlend mode="normal" in2="BackgroundImageFix" result="effect1_dropShadow"/>
<feBlend mode="normal" in="SourceGraphic" in2="effect1_dropShadow" result="shape"/>
</filter>
</defs>
</svg>
