<svg width="24" height="24" viewBox="0 0 24 24" fill="none" xmlns="http://www.w3.org/2000/svg">
<rect width="24" height="24" rx="12" fill="#F0F2F4"/>
<rect width="24" height="24" rx="12" fill="#F6F6F6"/>
<path d="M11.0517 13.5658C11.0517 13.0804 11.159 12.6791 11.3737 12.3618C11.5977 12.0444 11.9197 11.6944 12.3397 11.3118C12.6477 11.0318 12.8717 10.7984 13.0117 10.6118C13.161 10.4158 13.2357 10.1964 13.2357 9.95376C13.2357 9.60842 13.0957 9.33776 12.8157 9.14176C12.545 8.93642 12.181 8.83376 11.7237 8.83376C11.285 8.83376 10.893 8.92709 10.5477 9.11376C10.2117 9.29109 9.92703 9.54309 9.69369 9.86976L7.99969 8.87576C8.39169 8.27842 8.91903 7.81642 9.58169 7.48976C10.2537 7.16309 11.047 6.99976 11.9617 6.99976C13.035 6.99976 13.8937 7.22842 14.5377 7.68576C15.191 8.14309 15.5177 8.77776 15.5177 9.58976C15.5177 9.97242 15.4524 10.3084 15.3217 10.5978C15.2004 10.8871 15.0464 11.1344 14.8597 11.3398C14.6824 11.5358 14.449 11.7644 14.1597 12.0258C13.8144 12.3338 13.5624 12.5951 13.4037 12.8098C13.245 13.0151 13.1657 13.2671 13.1657 13.5658H11.0517ZM12.1157 17.0798C11.733 17.0798 11.411 16.9584 11.1497 16.7158C10.8977 16.4638 10.7717 16.1604 10.7717 15.8058C10.7717 15.4511 10.8977 15.1571 11.1497 14.9238C11.4017 14.6811 11.7237 14.5598 12.1157 14.5598C12.5077 14.5598 12.8297 14.6811 13.0817 14.9238C13.3337 15.1571 13.4597 15.4511 13.4597 15.8058C13.4597 16.1604 13.329 16.4638 13.0677 16.7158C12.8157 16.9584 12.4984 17.0798 12.1157 17.0798Z" fill="#ACB8CA"/>
<path d="M11.0517 13.5658C11.0517 13.0804 11.159 12.6791 11.3737 12.3618C11.5977 12.0444 11.9197 11.6944 12.3397 11.3118C12.6477 11.0318 12.8717 10.7984 13.0117 10.6118C13.161 10.4158 13.2357 10.1964 13.2357 9.95376C13.2357 9.60842 13.0957 9.33776 12.8157 9.14176C12.545 8.93642 12.181 8.83376 11.7237 8.83376C11.285 8.83376 10.893 8.92709 10.5477 9.11376C10.2117 9.29109 9.92703 9.54309 9.69369 9.86976L7.99969 8.87576C8.39169 8.27842 8.91903 7.81642 9.58169 7.48976C10.2537 7.16309 11.047 6.99976 11.9617 6.99976C13.035 6.99976 13.8937 7.22842 14.5377 7.68576C15.191 8.14309 15.5177 8.77776 15.5177 9.58976C15.5177 9.97242 15.4524 10.3084 15.3217 10.5978C15.2004 10.8871 15.0464 11.1344 14.8597 11.3398C14.6824 11.5358 14.449 11.7644 14.1597 12.0258C13.8144 12.3338 13.5624 12.5951 13.4037 12.8098C13.245 13.0151 13.1657 13.2671 13.1657 13.5658H11.0517ZM12.1157 17.0798C11.733 17.0798 11.411 16.9584 11.1497 16.7158C10.8977 16.4638 10.7717 16.1604 10.7717 15.8058C10.7717 15.4511 10.8977 15.1571 11.1497 14.9238C11.4017 14.6811 11.7237 14.5598 12.1157 14.5598C12.5077 14.5598 12.8297 14.6811 13.0817 14.9238C13.3337 15.1571 13.4597 15.4511 13.4597 15.8058C13.4597 16.1604 13.329 16.4638 13.0677 16.7158C12.8157 16.9584 12.4984 17.0798 12.1157 17.0798Z" fill="#909EB7"/>
<path d="M11.0517 13.5658C11.0517 13.0804 11.159 12.6791 11.3737 12.3618C11.5977 12.0444 11.9197 11.6944 12.3397 11.3118C12.6477 11.0318 12.8717 10.7984 13.0117 10.6118C13.161 10.4158 13.2357 10.1964 13.2357 9.95376C13.2357 9.60842 13.0957 9.33776 12.8157 9.14176C12.545 8.93642 12.181 8.83376 11.7237 8.83376C11.285 8.83376 10.893 8.92709 10.5477 9.11376C10.2117 9.29109 9.92703 9.54309 9.69369 9.86976L7.99969 8.87576C8.39169 8.27842 8.91903 7.81642 9.58169 7.48976C10.2537 7.16309 11.047 6.99976 11.9617 6.99976C13.035 6.99976 13.8937 7.22842 14.5377 7.68576C15.191 8.14309 15.5177 8.77776 15.5177 9.58976C15.5177 9.97242 15.4524 10.3084 15.3217 10.5978C15.2004 10.8871 15.0464 11.1344 14.8597 11.3398C14.6824 11.5358 14.449 11.7644 14.1597 12.0258C13.8144 12.3338 13.5624 12.5951 13.4037 12.8098C13.245 13.0151 13.1657 13.2671 13.1657 13.5658H11.0517ZM12.1157 17.0798C11.733 17.0798 11.411 16.9584 11.1497 16.7158C10.8977 16.4638 10.7717 16.1604 10.7717 15.8058C10.7717 15.4511 10.8977 15.1571 11.1497 14.9238C11.4017 14.6811 11.7237 14.5598 12.1157 14.5598C12.5077 14.5598 12.8297 14.6811 13.0817 14.9238C13.3337 15.1571 13.4597 15.4511 13.4597 15.8058C13.4597 16.1604 13.329 16.4638 13.0677 16.7158C12.8157 16.9584 12.4984 17.0798 12.1157 17.0798Z" fill="#9A9A9A"/>
</svg>
