<svg width="156" height="35" viewBox="0 0 156 35" fill="none" xmlns="http://www.w3.org/2000/svg"><g filter="url(#a)"><path d="M4 23a5 5 0 0 0 5 5h138a5 5 0 0 0 5-5V6a5 5 0 0 0-5-5H9a5 5 0 0 0-5 5v17z" fill="#fff"/><path d="M5 23a4 4 0 0 0 4 4h138a4 4 0 0 0 4-4V6a4 4 0 0 0-4-4H9a4 4 0 0 0-4 4v17z" stroke="#F0F2F4" stroke-width="2"/><path d="M5 23a4 4 0 0 0 4 4h138a4 4 0 0 0 4-4V6a4 4 0 0 0-4-4H9a4 4 0 0 0-4 4v17z" stroke="#F6F6F6" stroke-width="2"/></g><path d="M19 14v-1h-1v1h1zm0 5h-1v1h1v-1zm0-4h3v-2h-3v2zm4 1v1h2v-1h-2zm-1 2h-3v2h3v-2zm-2 1v-5h-2v5h2zm3-2a1 1 0 0 1-1 1v2a3 3 0 0 0 3-3h-2zm-1-2a1 1 0 0 1 1 1h2a3 3 0 0 0-3-3v2z" fill="#000"/><path d="M27 14h3a2 2 0 0 1 2 2v1a2 2 0 0 1-2 2h-3v-5zM24 9h-5v6" stroke="#000" stroke-width="2"/><path d="M32 9h-5v6" stroke="#000" stroke-width="2"/><path d="M45.456 14.532h-2.088v2.04H41.82v-2.04h-2.076v-1.464h2.076v-2.04h1.548v2.04h2.088v1.464zm10.87 1.884V18h-6.348v-1.26l3.24-3.06c.344-.328.576-.608.696-.84.12-.24.18-.476.18-.708 0-.336-.116-.592-.348-.768-.224-.184-.556-.276-.996-.276-.368 0-.7.072-.996.216a1.859 1.859 0 0 0-.744.624l-1.416-.912c.328-.488.78-.868 1.356-1.14.576-.28 1.236-.42 1.98-.42.624 0 1.168.104 1.632.312.472.2.836.488 1.092.864.264.368.396.804.396 1.308 0 .456-.096.884-.288 1.284-.192.4-.564.856-1.116 1.368l-1.932 1.824h3.612zm7.8 1.728c-.695 0-1.315-.172-1.86-.516-.543-.344-.971-.84-1.283-1.488-.304-.656-.456-1.436-.456-2.34 0-.904.152-1.68.456-2.328.312-.656.74-1.156 1.284-1.5.544-.344 1.164-.516 1.86-.516.696 0 1.316.172 1.86.516.544.344.968.844 1.272 1.5.312.648.468 1.424.468 2.328 0 .904-.156 1.684-.468 2.34-.304.648-.728 1.144-1.272 1.488-.544.344-1.164.516-1.86.516zm0-1.644c.513 0 .913-.22 1.2-.66.297-.44.445-1.12.445-2.04 0-.92-.148-1.6-.444-2.04-.288-.44-.688-.66-1.2-.66-.504 0-.904.22-1.2.66-.288.44-.432 1.12-.432 2.04 0 .92.144 1.6.432 2.04.296.44.696.66 1.2.66zm8.145 1.644c-.696 0-1.316-.172-1.86-.516-.544-.344-.972-.84-1.284-1.488-.304-.656-.456-1.436-.456-2.34 0-.904.152-1.68.456-2.328.312-.656.74-1.156 1.284-1.5.544-.344 1.164-.516 1.86-.516.696 0 1.316.172 1.86.516.544.344.968.844 1.272 1.5.312.648.468 1.424.468 2.328 0 .904-.156 1.684-.468 2.34-.304.648-.728 1.144-1.272 1.488-.544.344-1.164.516-1.86.516zm0-1.644c.512 0 .912-.22 1.2-.66.296-.44.444-1.12.444-2.04 0-.92-.148-1.6-.444-2.04-.288-.44-.688-.66-1.2-.66-.504 0-.904.22-1.2.66-.288.44-.432 1.12-.432 2.04 0 .92.144 1.6.432 2.04.296.44.696.66 1.2.66zm8.145 1.644c-.696 0-1.316-.172-1.86-.516-.544-.344-.972-.84-1.284-1.488-.304-.656-.456-1.436-.456-2.34 0-.904.152-1.68.456-2.328.312-.656.74-1.156 1.284-1.5.544-.344 1.164-.516 1.86-.516.696 0 1.316.172 1.86.516.544.344.968.844 1.272 1.5.312.648.468 1.424.468 2.328 0 .904-.156 1.684-.468 2.34-.304.648-.728 1.144-1.272 1.488-.544.344-1.164.516-1.86.516zm0-1.644c.512 0 .912-.22 1.2-.66.296-.44.444-1.12.444-2.04 0-.92-.148-1.6-.444-2.04-.288-.44-.688-.66-1.2-.66-.504 0-.904.22-1.2.66-.288.44-.432 1.12-.432 2.04 0 .92.144 1.6.432 2.04.296.44.696.66 1.2.66zm12.107-4.512c.616 0 1.156.128 1.62.384.464.248.82.6 1.068 1.056.256.456.384.984.384 1.584 0 .616-.152 1.164-.456 1.644-.296.472-.712.84-1.248 1.104-.536.256-1.144.384-1.824.384-1.128 0-2.016-.36-2.664-1.08-.64-.728-.96-1.792-.96-3.192 0-1.296.28-2.328.84-3.096.568-.776 1.436-1.284 2.604-1.524l3.072-.612.252 1.608-2.712.54c-.736.144-1.284.384-1.644.72-.352.336-.56.812-.624 1.428a2.78 2.78 0 0 1 1.008-.696c.392-.168.82-.252 1.284-.252zm-.444 4.704c.48 0 .864-.156 1.152-.468.296-.312.444-.708.444-1.188 0-.488-.148-.876-.444-1.164-.288-.288-.672-.432-1.152-.432-.488 0-.88.144-1.176.432-.296.288-.444.676-.444 1.164 0 .488.152.888.456 1.2.304.304.692.456 1.164.456zm7.81 1.404c-.68 0-1.292-.14-1.836-.42a3.22 3.22 0 0 1-1.26-1.188 3.257 3.257 0 0 1-.456-1.716c0-.64.152-1.212.456-1.716a3.135 3.135 0 0 1 1.26-1.176c.544-.288 1.156-.432 1.836-.432.68 0 1.288.144 1.824.432.536.28.956.672 1.26 1.176.304.504.456 1.076.456 1.716 0 .64-.152 1.212-.456 1.716a3.22 3.22 0 0 1-1.26 1.188c-.536.28-1.144.42-1.824.42zm0-1.536c.48 0 .872-.16 1.176-.48.312-.328.468-.764.468-1.308s-.156-.976-.468-1.296c-.304-.328-.696-.492-1.176-.492s-.876.164-1.188.492c-.312.32-.468.752-.468 1.296s.156.98.468 1.308c.312.32.708.48 1.188.48zm4.827-5.016h1.86v2.52h2.808v-2.52h1.872V18h-1.872v-2.412h-2.808V18h-1.86v-6.456zm14.8 0l-2.916 6.852c-.296.744-.664 1.268-1.104 1.572-.432.304-.956.456-1.572.456-.336 0-.668-.052-.996-.156a2.2 2.2 0 0 1-.804-.432l.684-1.332a1.625 1.625 0 0 0 1.056.408c.256 0 .464-.064.624-.192.16-.12.304-.324.432-.612l.024-.06-2.796-6.504h1.932l1.812 4.38 1.824-4.38h1.8zm3.8 6.552c-.688 0-1.308-.14-1.86-.42a3.286 3.286 0 0 1-1.284-1.188 3.257 3.257 0 0 1-.456-1.716c0-.64.152-1.212.456-1.716a3.2 3.2 0 0 1 1.284-1.176c.552-.288 1.172-.432 1.86-.432.68 0 1.272.144 1.776.432.512.28.884.684 1.116 1.212l-1.452.78c-.336-.592-.82-.888-1.452-.888-.488 0-.892.16-1.212.48-.32.32-.48.756-.48 1.308s.16.988.48 1.308c.32.32.724.48 1.212.48.64 0 1.124-.296 1.452-.888l1.452.792a2.57 2.57 0 0 1-1.116 1.2c-.504.288-1.096.432-1.776.432zm6.971 0c-.68 0-1.292-.14-1.836-.42a3.22 3.22 0 0 1-1.26-1.188 3.257 3.257 0 0 1-.456-1.716c0-.64.152-1.212.456-1.716a3.135 3.135 0 0 1 1.26-1.176c.544-.288 1.156-.432 1.836-.432.68 0 1.288.144 1.824.432.536.28.956.672 1.26 1.176.304.504.456 1.076.456 1.716 0 .64-.152 1.212-.456 1.716a3.22 3.22 0 0 1-1.26 1.188c-.536.28-1.144.42-1.824.42zm0-1.536c.48 0 .872-.16 1.176-.48.312-.328.468-.764.468-1.308s-.156-.976-.468-1.296c-.304-.328-.696-.492-1.176-.492s-.876.164-1.188.492c-.312.32-.468.752-.468 1.296s.156.98.468 1.308c.312.32.708.48 1.188.48zm9.76-1.932c.76.256 1.14.768 1.14 1.536 0 .584-.22 1.036-.66 1.356-.44.32-1.096.48-1.968.48h-3.444v-6.456h3.3c.808 0 1.44.148 1.896.444.456.288.684.696.684 1.224 0 .32-.084.604-.252.852a1.59 1.59 0 0 1-.696.564zm-3.216-.432h1.416c.656 0 .984-.232.984-.696 0-.456-.328-.684-.984-.684h-1.416v1.38zm1.572 2.532c.688 0 1.032-.236 1.032-.708 0-.248-.08-.428-.24-.54-.16-.12-.412-.18-.756-.18h-1.608v1.428h1.572z" fill="#000"/><defs><filter id="a" x="0" y="0" width="156" height="35" filterUnits="userSpaceOnUse" color-interpolation-filters="sRGB"><feFlood flood-opacity="0" result="BackgroundImageFix"/><feColorMatrix in="SourceAlpha" values="0 0 0 0 0 0 0 0 0 0 0 0 0 0 0 0 0 0 127 0" result="hardAlpha"/><feOffset dy="3"/><feGaussianBlur stdDeviation="2"/><feColorMatrix values="0 0 0 0 0 0 0 0 0 0 0 0 0 0 0 0 0 0 0.02 0"/><feBlend in2="BackgroundImageFix" result="effect1_dropShadow"/><feBlend in="SourceGraphic" in2="effect1_dropShadow" result="shape"/></filter></defs></svg>