<svg width="156" height="35" viewBox="0 0 156 35" fill="none" xmlns="http://www.w3.org/2000/svg"><g filter="url(#a)"><path d="M4 23a5 5 0 0 0 5 5h138a5 5 0 0 0 5-5V6a5 5 0 0 0-5-5H9a5 5 0 0 0-5 5v17z" fill="#fff"/><path d="M5 23a4 4 0 0 0 4 4h138a4 4 0 0 0 4-4V6a4 4 0 0 0-4-4H9a4 4 0 0 0-4 4v17z" stroke="#F0F2F4" stroke-width="2"/><path d="M5 23a4 4 0 0 0 4 4h138a4 4 0 0 0 4-4V6a4 4 0 0 0-4-4H9a4 4 0 0 0-4 4v17z" stroke="#F6F6F6" stroke-width="2"/></g><defs><filter id="a" x="0" y="0" width="156" height="35" filterUnits="userSpaceOnUse" color-interpolation-filters="sRGB"><feFlood flood-opacity="0" result="BackgroundImageFix"/><feColorMatrix in="SourceAlpha" values="0 0 0 0 0 0 0 0 0 0 0 0 0 0 0 0 0 0 127 0" result="hardAlpha"/><feOffset dy="3"/><feGaussianBlur stdDeviation="2"/><feColorMatrix values="0 0 0 0 0 0 0 0 0 0 0 0 0 0 0 0 0 0 0.02 0"/><feBlend in2="BackgroundImageFix" result="effect1_dropShadow"/><feBlend in="SourceGraphic" in2="effect1_dropShadow" result="shape"/></filter></defs></svg>